<svg xmlns="http://www.w3.org/2000/svg" xmlns:xlink="http://www.w3.org/1999/xlink" width="504.0140380859375" height="456.2179870605469" viewBox="0 0 504.0140380859375 456.2179870605469" fill="none"><path d="M315.58 2.75289C320.948 5.98382 324.778 10.6955 327.514 16.2802C328.723 23.384 328.411 29.7695 325.014 36.2177C322.618 39.217 320.105 41.9304 317.014 44.2177L314.014 44.2177C314.023 45.1875 314.031 46.1572 314.041 47.1563C314.122 56.3216 314.182 65.4868 314.221 74.6524C314.242 79.3639 314.27 84.075 314.315 88.7863C314.359 93.3381 314.383 97.8895 314.393 102.441C314.401 104.173 314.415 105.904 314.437 107.636C314.567 118.493 314.461 127.943 306.764 136.405C306.243 136.997 305.722 137.589 305.186 138.198C298.844 144.095 291.454 148.582 284.139 153.155C277.689 157.194 271.341 161.313 265.14 165.727C263.343 166.987 261.496 168.174 259.639 169.343C255.827 172.065 253.497 174.768 252.014 179.218C251.911 181.07 251.867 182.925 251.855 184.78L251.826 188.285C251.82 189.556 251.814 190.826 251.808 192.135C251.799 193.485 251.789 194.835 251.778 196.185C251.751 199.852 251.73 203.519 251.71 207.186C251.689 211.018 251.661 214.85 251.634 218.681C251.584 225.938 251.54 233.195 251.496 240.451C251.447 248.712 251.392 256.974 251.337 265.235C251.223 282.229 251.116 299.223 251.014 316.218C247.994 315.046 245.095 313.81 242.244 312.273C241.584 311.918 240.923 311.564 240.242 311.198C239.569 310.834 238.895 310.469 238.201 310.093C237.508 309.72 236.816 309.348 236.102 308.964C234.404 308.051 232.709 307.135 231.014 306.218C230.92 288.902 230.85 271.586 230.806 254.27C230.786 246.229 230.758 238.188 230.712 230.148C230.672 223.137 230.646 216.126 230.637 209.115C230.632 205.405 230.62 201.696 230.591 197.986C230.558 193.837 230.558 189.689 230.56 185.54C230.545 184.32 230.531 183.099 230.516 181.841C230.567 171.284 233.658 162.923 241.014 155.218C243.683 153.145 246.504 151.489 249.451 149.843C251.062 148.901 252.671 147.957 254.279 147.011C255.477 146.312 255.477 146.312 256.699 145.598C261.988 142.444 267.043 138.928 272.139 135.474C274.125 134.143 276.129 132.842 278.139 131.546C278.818 131.104 279.498 130.662 280.199 130.206C281.492 129.366 282.79 128.531 284.093 127.704C288.432 124.866 291.679 121.888 294.014 117.218C294.135 114.911 294.191 112.6 294.219 110.29L294.249 108.131C294.281 105.772 294.305 103.413 294.33 101.054C294.351 99.4199 294.372 97.786 294.393 96.1522C294.448 91.8483 294.498 87.5444 294.546 83.2404C294.596 78.85 294.652 74.4596 294.707 70.0693C294.815 61.4522 294.916 52.835 295.014 44.2177C294.117 44.0341 294.117 44.0341 293.201 43.8467C288.431 42.4752 285.116 38.8725 282.639 34.7177C279.857 28.5461 279.897 21.2824 281.674 14.8154C284.499 8.4431 289.422 4.65742 295.389 1.34273C302.596 -0.894175 308.669 -0.276965 315.58 2.75289ZM251.014 5.2177L251.014 24.2177L246.334 24.1825C244.269 24.1732 242.204 24.1641 240.139 24.1552L237.069 24.1298C228.515 24.1024 220.075 24.092 212.014 27.2177C211.227 27.4729 210.439 27.7282 209.627 27.9911C196.202 32.4728 184.117 39.6049 177.014 52.2177C178.364 52.3685 178.364 52.3685 179.741 52.5224C197.184 55.0742 213.713 62.623 227.014 74.2177C227.879 74.9241 228.744 75.6305 229.635 76.3583C237.127 82.6985 242.592 90.0843 248.014 98.2177C247.942 101.387 246.916 102.315 244.651 104.578C243.191 105.761 243.191 105.761 241.702 106.968C240.253 108.167 240.253 108.167 238.776 109.39C236.014 111.218 236.014 111.218 232.014 111.218C230.592 109.566 230.592 109.566 229.264 107.28C219.849 92.3658 206.51 83.096 190.014 77.2177C188.96 76.8052 187.905 76.3927 186.819 75.9677C167.485 69.5082 144.455 71.0907 126.299 80.0146C111.057 87.9208 99.7679 99.7033 93.9789 115.98C92.5809 120.67 91.6649 125.371 91.0139 130.218C92.6439 129.98 92.6439 129.98 94.3069 129.738C110.413 127.747 126.431 128.789 142.014 133.218C143.254 133.569 144.494 133.919 145.772 134.28C159.484 138.698 171.364 146.63 182.014 156.218C182.855 156.964 183.695 157.711 184.561 158.48C191.233 164.748 196.188 171.838 200.986 179.576C201.907 181.047 202.881 182.485 203.862 183.917C205.014 186.218 205.014 186.218 205.069 188.234C203.452 191.275 200.877 193 198.139 194.968C197.596 195.379 197.054 195.79 196.495 196.214C192.413 199.218 192.413 199.218 189.014 199.218C187.252 196.691 187.252 196.691 185.327 193.28C182.218 187.921 178.805 183.405 174.483 178.925C173.014 177.218 173.014 177.218 173.014 175.218C172.421 174.952 171.828 174.687 171.217 174.413C168.957 173.187 167.57 171.907 165.764 170.093C159.758 164.667 152.269 161.633 145.014 158.218C144.269 157.833 143.524 157.447 142.756 157.05C139.673 155.578 136.331 154.963 133.014 154.218C132.306 154.046 131.597 153.874 130.867 153.696C116.116 150.372 96.8909 149.469 83.0139 156.218C82.1219 156.642 81.2299 157.066 80.3109 157.503C72.7478 161.568 65.5659 167.778 63.0139 176.218C62.2929 184.051 62.4489 191.149 66.0139 198.218C66.3969 199.162 66.3969 199.162 66.7869 200.124C72.3289 212.937 83.5429 219.576 94.8038 226.78C97.9619 228.835 101.025 231.009 104.076 233.218C105.201 234.029 106.326 234.84 107.452 235.652C108.023 236.064 108.594 236.476 109.182 236.901C112.632 239.381 116.105 241.83 119.576 244.28C120.291 244.786 121.006 245.291 121.742 245.812C125.08 248.168 128.426 250.509 131.807 252.804C132.393 253.203 132.98 253.603 133.584 254.015C135.146 255.075 136.713 256.129 138.28 257.183C138.717 257.508 139.144 257.839 139.563 258.174C142.429 260.139 143.465 261.318 146.012 264.216L146.014 264.218C141.771 262.611 137.743 260.641 133.701 258.593L131.746 257.608C130.746 257.104 129.746 256.6 128.747 256.094C128.256 255.847 127.762 255.599 127.258 255.345C123.629 253.522 119.989 251.723 116.35 249.921C100.515 242.065 84.7419 234.16 69.3249 225.501C67.0108 224.217 64.6809 222.971 62.3419 221.734C49.7719 215.028 44.1278 208.794 39.0139 195.218C36.2659 183.322 36.3609 168.401 42.4548 157.683C48.4418 148.474 57.4019 139.755 68.0139 136.218C68.0729 135.313 68.0729 135.313 68.1339 134.389C69.7068 111.59 69.7068 111.59 74.0139 102.218C74.8318 100.421 74.8318 100.421 75.6658 98.5888C80.0999 89.3876 85.7379 82.3253 93.0139 75.2177C93.7198 74.4907 94.4268 73.7636 95.1549 73.0146C107.12 61.4146 123.77 54.2296 140.169 52.3224C147.284 51.6825 147.284 51.6825 153.206 48.163C154.684 45.5773 155.826 42.9468 157.014 40.2177C169.865 21.5999 190.509 9.64931 212.459 4.9013C225.038 2.67844 238.395 3.95477 251.014 5.2177ZM390.353 51.7412C395.673 54.6938 400.081 59.4206 402.014 65.2178C402.808 73.6082 403.143 80.6767 397.674 87.542C395.624 89.611 393.71 91.0943 391.013 92.2178L389.013 92.2178C389.022 92.8676 389.031 93.5175 389.04 94.1871C389.129 101.001 389.189 107.815 389.233 114.63C389.253 117.167 389.28 119.704 389.315 122.241C389.364 125.905 389.387 129.569 389.404 133.233C389.425 134.353 389.445 135.472 389.467 136.625C389.469 146.499 387.464 156.537 381.023 164.345C376.546 168.518 371.16 171.425 365.889 174.468C364.629 175.211 363.371 175.955 362.113 176.702C359.599 178.191 357.079 179.672 354.555 181.145C349.703 183.979 344.89 186.879 340.076 189.78C335.769 192.373 331.462 194.964 327.111 197.483C320.447 201.385 314.581 205.084 311.014 212.218C310.892 214.597 310.828 216.949 310.808 219.329C310.794 220.427 310.794 220.427 310.778 221.547C310.747 223.971 310.722 226.395 310.697 228.819C310.677 230.498 310.656 232.176 310.634 233.855C310.579 238.277 310.53 242.7 310.482 247.122C310.431 251.633 310.376 256.144 310.32 260.655C310.213 269.509 310.111 278.363 310.014 287.218C306.915 288.894 303.809 290.557 300.701 292.218C299.38 292.933 299.38 292.933 298.031 293.663C297.184 294.114 296.336 294.565 295.463 295.03C294.683 295.449 293.902 295.868 293.099 296.3C291.014 297.218 291.014 297.218 288.014 297.218C287.921 286.342 287.85 275.467 287.807 264.591C287.786 259.54 287.758 254.49 287.712 249.439C287.669 244.556 287.645 239.674 287.635 234.792C287.627 232.937 287.613 231.082 287.591 229.228C287.438 215.59 287.897 202.578 298.014 192.218C303.502 187.566 309.618 183.935 315.826 180.343C317.765 179.207 319.704 178.072 321.643 176.936C322.668 176.338 323.693 175.74 324.749 175.124C330.007 172.054 335.258 168.973 340.502 165.88C342.216 164.871 343.933 163.867 345.65 162.863C358.659 155.971 358.659 155.971 368.014 145.218C368.241 143.927 368.357 143.268 368.413 142.604C368.47 141.911 368.462 141.212 368.446 139.785L368.506 136.571L368.526 133.136L368.58 129.592C368.634 125.863 368.668 122.135 368.701 118.405C368.734 115.875 368.769 113.344 368.805 110.813C368.89 104.615 368.958 98.4165 369.014 92.2178C368.229 91.9228 367.444 91.6279 366.636 91.324C361.214 89.0364 357.794 84.0831 355.576 78.7803C354.292 70.6477 354.446 65.6237 359.092 58.5225C367.542 48.3898 378.551 47.1266 390.353 51.7412ZM451.252 107.815C456.437 110.378 460.578 115.668 464.014 120.218C466.113 126.516 466.224 134.54 463.451 140.655C461.114 144.601 457.852 147.722 454.014 150.218L452.014 150.218C452.045 151.903 452.045 151.903 452.077 153.623C452.15 157.841 452.196 162.058 452.234 166.276C452.254 168.092 452.281 169.909 452.316 171.725C452.557 184.608 452.76 196.435 443.268 206.341C438.493 210.317 432.987 213.092 427.514 215.967C426.217 216.664 424.921 217.362 423.626 218.061C419.768 220.137 415.894 222.182 412.014 224.217C410.911 224.797 409.808 225.376 408.671 225.973C404.745 228.029 400.815 230.078 396.879 232.115C388.811 236.293 380.875 240.664 373.014 245.217C372.128 245.72 371.242 246.223 370.33 246.741C366.715 248.867 364.564 250.307 363.014 254.217C362.569 256.343 362.569 256.343 362.389 258.467C362.203 260.324 362.203 260.324 362.014 262.217C361.087 262.563 361.087 262.563 360.143 262.917C354.763 264.988 349.786 267.324 344.826 270.264C343.014 271.217 343.014 271.217 341.014 271.217C340.312 255.583 340.087 250.569 341.906 246.459C342.764 244.517 344.079 242.778 346.014 240.217L347.119 238.393C351.467 232.132 358.943 229.018 365.504 225.546C370.212 223.053 374.891 220.504 379.576 217.967C380.591 217.42 381.606 216.872 382.651 216.308C391.772 211.377 400.81 206.307 409.815 201.167C413.021 199.337 416.24 197.543 419.494 195.8C420.152 195.442 420.81 195.084 421.488 194.715C423.175 193.8 424.869 192.899 426.565 191.999C429.54 189.835 429.96 188.717 431.014 185.218C431.245 182.473 431.385 179.819 431.428 177.073C431.447 176.303 431.466 175.534 431.487 174.74C431.546 172.295 431.592 169.85 431.639 167.405C431.677 165.742 431.716 164.078 431.756 162.415C431.852 158.349 431.936 154.284 432.014 150.218L430.17 149.815C425.801 148.604 423.022 145.678 420.701 141.905C417.871 135.685 418.091 128.867 419.014 122.218C421.275 116.194 425.795 111.579 431.252 108.253C437.543 105.895 444.796 106.091 451.252 107.815ZM0.0136047 216.218C20.0761 226.249 20.0761 226.249 22.0466 227.234C23.3741 227.898 24.7017 228.561 26.0295 229.225C29.2551 230.836 32.4788 232.451 35.6972 234.077C42.4012 237.457 49.135 240.763 55.9145 243.989C76.4709 253.776 96.7856 264.055 117.127 274.28C128.544 280.019 140.022 285.629 151.514 291.218C165.697 298.115 179.842 305.077 193.912 312.202C208.461 319.56 223.172 326.476 238.014 333.218L238.014 335.218C228.586 337.26 219.163 338.852 209.601 340.127C205.507 340.682 201.456 341.3 197.409 342.136C190.91 343.477 184.362 344.518 177.815 345.591C162.968 348.026 148.144 350.573 133.332 353.213C122.634 355.119 111.92 356.914 101.194 358.656C98.6602 359.104 96.1466 359.592 93.6266 360.106C83.6574 362.106 73.6325 363.818 63.6203 365.586C61.0124 366.048 58.405 366.513 55.798 366.98C51.9999 367.66 48.2003 368.333 44.4003 369.003C43.252 369.21 42.1036 369.418 40.9205 369.631C33.2979 370.964 25.7375 371.759 18.0136 372.218C16.3818 368.954 16.4228 365.311 16.0761 361.718C14.501 345.858 12.6361 330.056 10.5269 314.258C7.82391 293.963 5.38379 273.654 3.23363 253.293C3.00997 251.184 2.78347 249.074 2.55608 246.965C2.12052 242.925 1.69113 238.884 1.2636 234.843L0.876154 231.221L0.52923 227.882L0.225519 224.99C0.00119633 222.055 -0.0222233 219.159 0.0136047 216.218ZM504.014 217.218C503.008 234.981 501.98 252.76 499.261 270.354C497.879 279.568 496.962 288.826 496.014 298.093C494.866 309.283 493.678 320.453 492.165 331.601C490.966 340.442 489.894 349.297 488.826 358.156C488.736 358.907 488.645 359.659 488.552 360.434C488.038 364.695 487.525 368.957 487.014 373.218C486.282 373.252 485.55 373.287 484.796 373.322C443.243 375.405 401.186 384.305 363.014 401.218C361.421 401.895 359.827 402.569 358.233 403.241C339.821 411.019 322.279 419.474 304.973 429.504C302.048 431.198 299.115 432.878 296.182 434.558C286.895 439.919 277.898 445.405 269.403 451.968C265.19 455.218 265.19 455.218 263.014 455.218L263.014 336.218C273.97 330.452 284.889 324.719 295.976 319.229C299.619 317.422 303.253 315.6 306.889 313.78C308.405 313.022 309.92 312.264 311.436 311.507C312.191 311.129 312.945 310.752 313.723 310.363C332.916 300.766 352.11 291.17 371.303 281.573C372.008 281.22 372.714 280.868 373.441 280.504C374.867 279.791 376.294 279.078 377.721 278.365C381.098 276.677 384.475 274.987 387.848 273.292C400.336 267.022 412.9 260.906 425.46 254.781C439.876 247.749 454.248 240.639 468.563 233.404C472.09 231.623 475.618 229.846 479.146 228.069C480.957 227.156 482.767 226.241 484.577 225.323C487.226 223.98 489.879 222.645 492.534 221.311C493.343 220.899 494.152 220.487 494.986 220.062C495.735 219.687 496.484 219.313 497.255 218.927C497.911 218.596 498.567 218.264 499.242 217.923C501.014 217.218 501.014 217.218 504.014 217.218ZM241.014 343.218L241.014 456.218L233.014 450.218C231.629 449.267 230.232 448.331 228.815 447.429C227.73 446.739 227.73 446.739 226.624 446.034C225.866 445.559 225.108 445.083 224.326 444.593C223.508 444.079 222.69 443.566 221.847 443.036C195.066 426.359 167.478 413.324 138.014 402.218C136.987 401.83 135.961 401.443 134.903 401.044C129.292 398.963 123.666 397.152 117.889 395.593C117.156 395.389 116.422 395.185 115.666 394.976C108.203 392.929 100.663 391.32 93.0687 389.843C90.7757 389.374 88.4897 388.867 86.2087 388.343C71.2867 384.952 56.1847 383.096 41.0137 381.218L41.0137 379.218C41.7867 379.096 42.5607 378.975 43.3577 378.851C44.9197 378.599 44.9197 378.599 46.5137 378.343L49.6077 377.851C52.0467 377.397 54.4677 376.842 56.8687 376.222C61.1567 375.123 65.4397 374.575 69.8257 374.03C79.7517 372.71 89.5217 370.786 99.3257 368.78C110.465 366.502 121.594 364.37 132.822 362.57C141.506 361.169 150.117 359.469 158.73 357.687C162.03 357.009 165.335 356.349 168.639 355.691C170.724 355.275 172.809 354.856 174.893 354.437C175.267 354.364 175.64 354.291 176.014 354.22L176.014 354.218C177.762 353.853 179.512 353.501 181.264 353.155L184.217 352.558C185.136 352.446 185.931 352.388 186.682 352.395C189.753 351.938 192.836 351.542 195.952 351.218C201.14 350.672 205.782 349.82 210.655 347.94C215.076 346.586 219.689 346.239 224.268 345.69C228.53 345.153 232.724 344.404 236.94 343.585C239.014 343.218 239.014 343.218 241.014 343.218Z" fill-rule="evenodd"  fill="#1472C4" ></path></svg>